<mxfile host="app.diagrams.net" modified="2020-11-23T15:45:34.708Z" agent="5.0 (Windows NT 10.0; Win64; x64) AppleWebKit/537.36 (KHTML, like Gecko) Chrome/87.0.4280.66 Safari/537.36 Edg/87.0.664.41" etag="QbQvACzw10VEUs-Mgc5h" version="13.10.0" type="github">
  <diagram id="if6Sdn1kFtCpr3i0YmzA" name="Page-1">
    <mxGraphModel dx="1038" dy="585" grid="1" gridSize="10" guides="1" tooltips="1" connect="1" arrows="1" fold="1" page="1" pageScale="1" pageWidth="850" pageHeight="1100" math="0" shadow="0">
      <root>
        <mxCell id="0" />
        <mxCell id="1" parent="0" />
        <mxCell id="ZkDqbu-DldPJky1-AghM-1" value="" style="ellipse;html=1;shape=startState;fillColor=#000000;strokeColor=#ff0000;" vertex="1" parent="1">
          <mxGeometry x="340" y="30" width="30" height="30" as="geometry" />
        </mxCell>
        <mxCell id="ZkDqbu-DldPJky1-AghM-2" value="" style="edgeStyle=orthogonalEdgeStyle;html=1;verticalAlign=bottom;endArrow=open;endSize=8;strokeColor=#ff0000;" edge="1" source="ZkDqbu-DldPJky1-AghM-1" parent="1">
          <mxGeometry relative="1" as="geometry">
            <mxPoint x="355" y="110" as="targetPoint" />
          </mxGeometry>
        </mxCell>
        <mxCell id="ZkDqbu-DldPJky1-AghM-19" value="" style="edgeStyle=orthogonalEdgeStyle;html=1;verticalAlign=bottom;endArrow=open;endSize=8;strokeColor=#ff0000;" edge="1" parent="1">
          <mxGeometry relative="1" as="geometry">
            <mxPoint x="354.5" y="230" as="targetPoint" />
            <mxPoint x="354.5" y="180" as="sourcePoint" />
          </mxGeometry>
        </mxCell>
        <mxCell id="ZkDqbu-DldPJky1-AghM-21" value="" style="edgeStyle=orthogonalEdgeStyle;html=1;verticalAlign=bottom;endArrow=open;endSize=8;strokeColor=#ff0000;" edge="1" parent="1">
          <mxGeometry relative="1" as="geometry">
            <mxPoint x="354.5" y="350" as="targetPoint" />
            <mxPoint x="354.5" y="300" as="sourcePoint" />
          </mxGeometry>
        </mxCell>
        <mxCell id="ZkDqbu-DldPJky1-AghM-23" value="" style="edgeStyle=orthogonalEdgeStyle;html=1;verticalAlign=bottom;endArrow=open;endSize=8;strokeColor=#ff0000;" edge="1" parent="1">
          <mxGeometry relative="1" as="geometry">
            <mxPoint x="354.5" y="470" as="targetPoint" />
            <mxPoint x="354.5" y="420" as="sourcePoint" />
          </mxGeometry>
        </mxCell>
        <mxCell id="ZkDqbu-DldPJky1-AghM-30" value="" style="edgeStyle=orthogonalEdgeStyle;rounded=0;orthogonalLoop=1;jettySize=auto;html=1;fillColor=#f8cecc;strokeColor=#b85450;" edge="1" parent="1" source="ZkDqbu-DldPJky1-AghM-24">
          <mxGeometry relative="1" as="geometry">
            <mxPoint x="520" y="505" as="targetPoint" />
          </mxGeometry>
        </mxCell>
        <mxCell id="ZkDqbu-DldPJky1-AghM-32" value="Sai" style="edgeLabel;html=1;align=center;verticalAlign=middle;resizable=0;points=[];" vertex="1" connectable="0" parent="ZkDqbu-DldPJky1-AghM-30">
          <mxGeometry x="0.2626" y="-2" relative="1" as="geometry">
            <mxPoint as="offset" />
          </mxGeometry>
        </mxCell>
        <mxCell id="ZkDqbu-DldPJky1-AghM-24" value="" style="rhombus;" vertex="1" parent="1">
          <mxGeometry x="305" y="470" width="100" height="70" as="geometry" />
        </mxCell>
        <mxCell id="ZkDqbu-DldPJky1-AghM-28" value="Đúng" style="edgeStyle=orthogonalEdgeStyle;html=1;verticalAlign=bottom;endArrow=open;endSize=8;strokeColor=#ff0000;" edge="1" parent="1">
          <mxGeometry relative="1" as="geometry">
            <mxPoint x="354.5" y="590" as="targetPoint" />
            <mxPoint x="354.5" y="540" as="sourcePoint" />
          </mxGeometry>
        </mxCell>
        <mxCell id="ZkDqbu-DldPJky1-AghM-31" style="edgeStyle=orthogonalEdgeStyle;rounded=0;orthogonalLoop=1;jettySize=auto;html=1;exitX=0.5;exitY=0;exitDx=0;exitDy=0;entryX=1;entryY=0.5;entryDx=0;entryDy=0;fillColor=#f8cecc;strokeColor=#b85450;" edge="1" parent="1" source="ZkDqbu-DldPJky1-AghM-39" target="ZkDqbu-DldPJky1-AghM-36">
          <mxGeometry relative="1" as="geometry">
            <mxPoint x="590" y="470" as="sourcePoint" />
            <mxPoint x="425" y="145" as="targetPoint" />
          </mxGeometry>
        </mxCell>
        <mxCell id="ZkDqbu-DldPJky1-AghM-33" value="" style="ellipse;html=1;shape=endState;fillColor=#000000;strokeColor=#ff0000;" vertex="1" parent="1">
          <mxGeometry x="340" y="720" width="30" height="30" as="geometry" />
        </mxCell>
        <mxCell id="ZkDqbu-DldPJky1-AghM-36" value="user nhập tài khoản" style="html=1;" vertex="1" parent="1">
          <mxGeometry x="300" y="110" width="110" height="70" as="geometry" />
        </mxCell>
        <mxCell id="ZkDqbu-DldPJky1-AghM-37" value="users nhập mật khẩu" style="html=1;" vertex="1" parent="1">
          <mxGeometry x="295" y="230" width="120" height="70" as="geometry" />
        </mxCell>
        <mxCell id="ZkDqbu-DldPJky1-AghM-38" value="&lt;span&gt;nhấn nút đăng nhập&lt;/span&gt;" style="html=1;" vertex="1" parent="1">
          <mxGeometry x="300" y="350" width="110" height="70" as="geometry" />
        </mxCell>
        <mxCell id="ZkDqbu-DldPJky1-AghM-39" value="thông báo sai tài&lt;br&gt;khoản hoặc mât khẩu,&lt;br&gt;yêu cầu nhập lại" style="html=1;" vertex="1" parent="1">
          <mxGeometry x="520" y="470" width="150" height="80" as="geometry" />
        </mxCell>
        <mxCell id="ZkDqbu-DldPJky1-AghM-42" value="&lt;span&gt;Đăng nhập thành công&lt;/span&gt;" style="html=1;" vertex="1" parent="1">
          <mxGeometry x="295" y="590" width="135" height="50" as="geometry" />
        </mxCell>
      </root>
    </mxGraphModel>
  </diagram>
</mxfile>
